<svg width="83" height="21" viewBox="0 0 83 21" fill="none" xmlns="http://www.w3.org/2000/svg">
<path d="M11.456 3.152V6.44H4.592V9.992H9.728V13.184H4.592V20H0.488V3.152H11.456ZM26.837 6.608V20H22.733V18.176C22.317 18.768 21.749 19.248 21.029 19.616C20.325 19.968 19.541 20.144 18.677 20.144C17.653 20.144 16.749 19.92 15.965 19.472C15.181 19.008 14.573 18.344 14.141 17.48C13.709 16.616 13.493 15.6 13.493 14.432V6.608H17.573V13.88C17.573 14.776 17.805 15.472 18.269 15.968C18.733 16.464 19.357 16.712 20.141 16.712C20.941 16.712 21.573 16.464 22.037 15.968C22.501 15.472 22.733 14.776 22.733 13.88V6.608H26.837ZM37.9449 6.464C39.5129 6.464 40.7609 6.976 41.6889 8C42.6329 9.008 43.1049 10.4 43.1049 12.176V20H39.0249V12.728C39.0249 11.832 38.7929 11.136 38.3289 10.64C37.8649 10.144 37.2409 9.896 36.4569 9.896C35.6729 9.896 35.0489 10.144 34.5849 10.64C34.1209 11.136 33.8889 11.832 33.8889 12.728V20H29.7849V6.608H33.8889V8.384C34.3049 7.792 34.8649 7.328 35.5689 6.992C36.2729 6.64 37.0649 6.464 37.9449 6.464ZM48.0208 5.216C47.3008 5.216 46.7088 5.008 46.2448 4.592C45.7968 4.16 45.5728 3.632 45.5728 3.008C45.5728 2.368 45.7968 1.84 46.2448 1.424C46.7088 0.991999 47.3008 0.775999 48.0208 0.775999C48.7248 0.775999 49.3008 0.991999 49.7488 1.424C50.2128 1.84 50.4448 2.368 50.4448 3.008C50.4448 3.632 50.2128 4.16 49.7488 4.592C49.3008 5.008 48.7248 5.216 48.0208 5.216ZM50.0608 6.608V20H45.9568V6.608H50.0608ZM57.1389 8.84C57.6189 8.104 58.2189 7.528 58.9389 7.112C59.6589 6.68 60.4589 6.464 61.3389 6.464V10.808H60.2109C59.1869 10.808 58.4189 11.032 57.9069 11.48C57.3949 11.912 57.1389 12.68 57.1389 13.784V20H53.0349V6.608H57.1389V8.84ZM69.3965 20.192C68.0845 20.192 66.9005 19.912 65.8445 19.352C64.8045 18.792 63.9805 17.992 63.3725 16.952C62.7805 15.912 62.4845 14.696 62.4845 13.304C62.4845 11.928 62.7885 10.72 63.3965 9.68C64.0045 8.624 64.8365 7.816 65.8925 7.256C66.9485 6.696 68.1325 6.416 69.4445 6.416C70.7565 6.416 71.9405 6.696 72.9965 7.256C74.0525 7.816 74.8845 8.624 75.4925 9.68C76.1005 10.72 76.4045 11.928 76.4045 13.304C76.4045 14.68 76.0925 15.896 75.4685 16.952C74.8605 17.992 74.0205 18.792 72.9485 19.352C71.8925 19.912 70.7085 20.192 69.3965 20.192ZM69.3965 16.64C70.1805 16.64 70.8445 16.352 71.3885 15.776C71.9485 15.2 72.2285 14.376 72.2285 13.304C72.2285 12.232 71.9565 11.408 71.4125 10.832C70.8845 10.256 70.2285 9.968 69.4445 9.968C68.6445 9.968 67.9805 10.256 67.4525 10.832C66.9245 11.392 66.6605 12.216 66.6605 13.304C66.6605 14.376 66.9165 15.2 67.4285 15.776C67.9565 16.352 68.6125 16.64 69.3965 16.64ZM80.5018 20.192C79.7818 20.192 79.1898 19.984 78.7258 19.568C78.2778 19.136 78.0538 18.608 78.0538 17.984C78.0538 17.344 78.2778 16.808 78.7258 16.376C79.1898 15.944 79.7818 15.728 80.5018 15.728C81.2058 15.728 81.7818 15.944 82.2298 16.376C82.6938 16.808 82.9258 17.344 82.9258 17.984C82.9258 18.608 82.6938 19.136 82.2298 19.568C81.7818 19.984 81.2058 20.192 80.5018 20.192Z" fill="black"/>
</svg>
